Coordinates
version=1
nRows=10
nColumns=40
inDegrees=yes

Units are S.I. units (second, meters, Newtons, ...)
If the header above contains a line with 'inDegrees', this indicates whether rotational values are in degrees (yes) or radians (no).

endheader
time	pelvis_tilt	pelvis_list	pelvis_rotation	pelvis_tx	pelvis_ty	pelvis_tz	hip_flexion_r	hip_adduction_r	hip_rotation_r	knee_angle_r	knee_angle_r_beta	ankle_angle_r	subtalar_angle_r	mtp_angle_r	hip_flexion_l	hip_adduction_l	hip_rotation_l	knee_angle_l	knee_angle_l_beta	ankle_angle_l	subtalar_angle_l	mtp_angle_l	lumbar_extension	lumbar_bending	lumbar_rotation	arm_flex_r	arm_add_r	arm_rot_r	elbow_flex_r	pro_sup_r	wrist_flex_r	wrist_dev_r	arm_flex_l	arm_add_l	arm_rot_l	elbow_flex_l	pro_sup_l	wrist_flex_l	wrist_dev_l
      9.15000000	     27.73856911	      0.36753221	    179.37343542	      0.39406620	      0.80481475	     -0.58221882	     80.55843644	     -9.40747804	      0.14317708	     66.46712488	      1.16007017	     16.88825629	      0.00000000	      0.00000000	     80.59579900	    -12.39406478	     -2.92345326	     68.37909599	      1.19344036	     12.67830749	      0.00000000	      0.00000000	    -55.32395669	      0.46900438	     -2.61400677	     65.74248423	     -8.35399663	     25.47087924	     18.97526381	     88.26091349	      0.00000000	      0.00000000	     58.61157561	    -16.31643388	     20.10161330	     28.94692516	     88.24564421	      0.00000000	      0.00000000
      9.15500000	     27.72508436	      0.33116449	    179.19453810	      0.39385526	      0.80535418	     -0.58286405	     80.49208230	     -9.23179483	      0.14506801	     66.37354363	      1.15843687	     16.80057513	      0.00000000	      0.00000000	     80.50700257	    -12.51010455	     -2.87306822	     68.35466099	      1.19301389	     12.69981033	      0.00000000	      0.00000000	    -55.22652446	      0.25412796	     -2.52686075	     65.58498250	     -8.33666595	     25.48760894	     18.91974525	     88.26594024	      0.00000000	      0.00000000	     58.56930702	    -16.32288133	     20.09947770	     28.93620016	     88.24616177	      0.00000000	      0.00000000
      9.16000000	     27.84097461	      0.39279017	    179.38643119	      0.39397467	      0.80664457	     -0.58211176	     80.36367697	     -9.44024011	      0.00449079	     66.00471661	      1.15199963	     16.75815728	      0.00000000	      0.00000000	     80.38191525	    -12.08545266	     -2.59575115	     67.82591578	      1.18378555	     12.68028670	      0.00000000	      0.00000000	    -55.10620687	      0.50745818	     -2.56310273	     65.60137376	     -8.37796790	     25.43241686	     18.98067836	     88.26196444	      0.00000000	      0.00000000	     58.57290304	    -16.24420847	     20.15212666	     28.86343817	     88.24603493	      0.00000000	      0.00000000
      9.16500000	     27.84438657	      0.44753631	    179.38921227	      0.39395435	      0.80739826	     -0.58209371	     80.25638426	     -9.40150881	     -0.02752452	     65.85592212	      1.14940267	     16.64054848	      0.00000000	      0.00000000	     80.34761288	    -12.23108954	     -2.71950910	     67.80115371	      1.18335337	     12.59549889	      0.00000000	      0.00000000	    -55.01383717	      0.56132975	     -2.52259328	     65.54159508	     -8.37004246	     25.43162918	     18.96660398	     88.26539543	      0.00000000	      0.00000000	     58.52084396	    -16.22759158	     20.18190781	     28.79426554	     88.24422936	      0.00000000	      0.00000000
      9.17000000	     27.87822646	      0.45905605	    179.38009448	      0.39387791	      0.80824037	     -0.58204825	     80.16035678	     -9.39245906	     -0.06694640	     65.66056724	      1.14599309	     16.57622952	      0.00000000	      0.00000000	     80.23626736	    -12.14212178	     -2.62233660	     67.55646038	      1.17908266	     12.52270327	      0.00000000	      0.00000000	    -54.89475341	      0.57872754	     -2.48519311	     65.47036316	     -8.38673890	     25.43130963	     18.94884216	     88.26681593	      0.00000000	      0.00000000	     58.45982038	    -16.18396055	     20.22663645	     28.73115823	     88.24251144	      0.00000000	      0.00000000
      9.17500000	     27.90617092	      0.44142485	    179.38996131	      0.39381935	      0.80919223	     -0.58188272	     80.04916518	     -9.41157352	     -0.07727758	     65.44106599	      1.14216207	     16.48190461	      0.00000000	      0.00000000	     80.11385256	    -11.94309190	     -2.43908985	     67.30879445	      1.17476008	     12.50233597	      0.00000000	      0.00000000	    -54.78666536	      0.59593689	     -2.49524816	     65.41063664	     -8.39365321	     25.43047542	     18.94628085	     88.26788953	      0.00000000	      0.00000000	     58.43058045	    -16.15624033	     20.26487180	     28.67680405	     88.23993284	      0.00000000	      0.00000000
      9.18000000	     27.91528262	      0.44470819	    179.35336483	      0.39378408	      0.80997593	     -0.58193568	     79.95360578	     -9.34921671	     -0.06495092	     65.27320932	      1.13923242	     16.38542011	      0.00000000	      0.00000000	     80.04466235	    -12.04539180	     -2.54600336	     67.21500174	      1.17312309	     12.45972404	      0.00000000	      0.00000000	    -54.67871858	      0.58354316	     -2.46655409	     65.32626871	     -8.37728182	     25.44328290	     18.92593068	     88.27052590	      0.00000000	      0.00000000	     58.35662335	    -16.14118235	     20.28880530	     28.63414251	     88.23915008	      0.00000000	      0.00000000
      9.18500000	     27.95654965	      0.41510557	    179.39047221	      0.39369700	      0.81107028	     -0.58167020	     79.83939924	     -9.43438079	     -0.12802527	     65.02719460	      1.13493865	     16.29649559	      0.00000000	      0.00000000	     79.91185015	    -11.92420367	     -2.54496788	     66.93960152	      1.16831645	     12.30727185	      0.00000000	      0.00000000	    -54.57266781	      0.61640499	     -2.51234052	     65.27623679	     -8.37944580	     25.44291674	     18.93211310	     88.27066093	      0.00000000	      0.00000000	     58.32548675	    -16.12589441	     20.31016314	     28.60637435	     88.23443086	      0.00000000	      0.00000000
      9.19000000	     27.93373638	      0.41926645	    179.32231731	      0.39359022	      0.81178023	     -0.58175440	     79.73504140	     -9.30480778	     -0.02505638	     64.90555947	      1.13281572	     16.18319411	      0.00000000	      0.00000000	     79.82076294	    -12.01385059	     -2.59606786	     66.87784237	      1.16723855	     12.28595732	      0.00000000	      0.00000000	    -54.47561119	      0.58929915	     -2.48060085	     65.18972703	     -8.35134613	     25.45103764	     18.92272457	     88.27333184	      0.00000000	      0.00000000	     58.20881144	    -16.12021072	     20.32259555	     28.56697351	     88.23416083	      0.00000000	      0.00000000
      9.19500000	     27.93438652	      0.38405023	    179.35172820	      0.39336556	      0.81278720	     -0.58146678	     79.60078625	     -9.36299677	     -0.02837945	     64.71013561	      1.12940493	     16.12588097	      0.00000000	      0.00000000	     79.63127456	    -11.79989320	     -2.49843846	     66.58312671	      1.16209479	     12.25284502	      0.00000000	      0.00000000	    -54.39245367	      0.62157839	     -2.53268201	     65.11879870	     -8.34901816	     25.43297418	     18.93328224	     88.27136413	      0.00000000	      0.00000000	     58.10925251	    -16.11926054	     20.31533006	     28.56949135	     88.23176802	      0.00000000	      0.00000000
